<?xml version="1.0" standalone="no"?>
<!DOCTYPE svg PUBLIC "-//W3C//DTD SVG 20010904//EN"
 "http://www.w3.org/TR/2001/REC-SVG-20010904/DTD/svg10.dtd">
<svg version="1.0" xmlns="http://www.w3.org/2000/svg"
 width="200.000000pt" height="200.000000pt" viewBox="0 0 200.000000 200.000000"
 preserveAspectRatio="xMidYMid meet">
<metadata>
Created by potrace 1.11, written by Peter Selinger 2001-2013
</metadata>
<g transform="translate(0.000000,200.000000) scale(0.100000,-0.100000)"
fill="#000000" stroke="none">
<path d="M550 1599 l0 -112 23 21 c18 17 104 61 122 62 3 0 15 0 27 0 29 0 20
8 -89 84 l-83 57 0 -112z"/>
<path d="M1440 1692 c-14 -10 -56 -40 -94 -67 l-69 -48 54 -14 c30 -7 73 -27
97 -43 l42 -30 0 110 c0 61 -1 110 -2 110 -2 0 -14 -9 -28 -18z"/>
<path d="M675 1518 c-172 -61 -220 -275 -90 -401 40 -39 109 -67 165 -67 51 0
124 27 153 56 l25 24 16 -51 c10 -28 29 -69 42 -91 l26 -41 23 39 c19 33 37
80 51 132 3 9 10 7 25 -7 62 -57 185 -75 260 -38 88 44 134 119 134 217 0 101
-53 182 -144 222 -54 23 -228 23 -296 0 -48 -17 -54 -17 -105 0 -63 19 -236
23 -285 6z m136 -40 c49 -17 95 -54 113 -92 19 -40 13 -163 -10 -208 -27 -52
-111 -93 -177 -86 -97 11 -170 77 -183 164 -22 148 118 270 257 222z m571 -24
c111 -79 112 -249 2 -327 -52 -36 -132 -46 -187 -23 -60 26 -107 80 -107 124
0 21 -3 60 -5 87 -5 43 -1 55 22 89 61 87 190 110 275 50z"/>
<path d="M753 1304 c-21 -21 -24 -32 -19 -62 15 -95 137 -95 152 0 6 31 2 40
-21 62 -36 34 -78 34 -112 0z"/>
<path d="M1155 1305 c-32 -31 -32 -74 0 -109 31 -34 73 -34 109 -1 34 31 34
73 1 109 -32 34 -77 35 -110 1z"/>
<path d="M557 1002 c-71 -131 -85 -327 -32 -455 24 -60 92 -166 131 -205 10
-10 19 -4 46 32 l34 44 75 -50 c41 -27 102 -65 136 -84 l63 -35 52 28 c29 15
87 51 128 78 41 28 80 54 86 58 6 3 25 -13 44 -39 l33 -46 24 29 c46 54 102
145 124 202 52 132 21 382 -57 472 -13 14 -20 14 -75 -5 -54 -17 -69 -18 -127
-8 -36 6 -69 9 -74 6 -5 -3 -18 -24 -30 -47 -30 -58 -34 -177 -9 -249 25 -72
67 -160 102 -218 16 -26 29 -51 29 -56 0 -10 -127 -96 -204 -138 l-49 -27 -91
55 c-50 30 -106 68 -125 84 l-34 28 25 40 c40 62 95 175 112 230 31 94 24 202
-15 269 -19 31 -24 34 -52 27 -54 -12 -141 -7 -185 11 -23 9 -46 17 -51 17 -4
0 -19 -21 -34 -48z"/>
</g>
</svg>
